<mxfile host="app.diagrams.net" modified="2022-01-17T05:43:33.829Z" agent="5.0 (Windows NT 10.0; Win64; x64) AppleWebKit/537.36 (KHTML, like Gecko) Chrome/97.0.4692.71 Safari/537.36 Edg/97.0.1072.62" etag="kdU-Z5wKMFi6ouR4KQSb" version="16.2.4" type="github">
  <diagram id="2ZZIV0E0WqTFmpqmLoBd" name="Page-1">
    <mxGraphModel dx="1065" dy="706" grid="1" gridSize="10" guides="1" tooltips="1" connect="1" arrows="1" fold="1" page="1" pageScale="1" pageWidth="1169" pageHeight="827" math="0" shadow="0">
      <root>
        <mxCell id="0" />
        <mxCell id="1" parent="0" />
        <mxCell id="JOawp78KLpITCxqBzhZb-1" value="Device Config Rules" style="rounded=1;whiteSpace=wrap;html=1;" vertex="1" parent="1">
          <mxGeometry x="200" y="180" width="120" height="60" as="geometry" />
        </mxCell>
        <mxCell id="JOawp78KLpITCxqBzhZb-2" value="Rule_Byte0" style="rounded=1;whiteSpace=wrap;html=1;" vertex="1" parent="1">
          <mxGeometry x="200" y="384" width="120" height="60" as="geometry" />
        </mxCell>
        <mxCell id="JOawp78KLpITCxqBzhZb-3" value="Rule_Byte1" style="rounded=1;whiteSpace=wrap;html=1;" vertex="1" parent="1">
          <mxGeometry x="350" y="384" width="120" height="60" as="geometry" />
        </mxCell>
        <mxCell id="JOawp78KLpITCxqBzhZb-4" value="Rule_Byte2" style="rounded=1;whiteSpace=wrap;html=1;" vertex="1" parent="1">
          <mxGeometry x="500" y="384" width="120" height="60" as="geometry" />
        </mxCell>
        <mxCell id="JOawp78KLpITCxqBzhZb-5" value="Device Is Config" style="rounded=1;whiteSpace=wrap;html=1;" vertex="1" parent="1">
          <mxGeometry x="350" y="180" width="120" height="60" as="geometry" />
        </mxCell>
        <mxCell id="JOawp78KLpITCxqBzhZb-6" value="Byte Generate Rule:&lt;br&gt;1. Byte0 Gen Check&lt;br&gt;2. Gen Config Data" style="rounded=1;whiteSpace=wrap;html=1;" vertex="1" parent="1">
          <mxGeometry x="200" y="280" width="270" height="70" as="geometry" />
        </mxCell>
      </root>
    </mxGraphModel>
  </diagram>
</mxfile>
